<svg id="visual" viewBox="0 0 900 600" width="900" height="600" xmlns="http://www.w3.org/2000/svg" xmlns:xlink="http://www.w3.org/1999/xlink" version="1.1"><rect x="0" y="0" width="900" height="600" fill="#002233"></rect><path d="M0 417L21.5 410.8C43 404.7 86 392.3 128.8 406.5C171.7 420.7 214.3 461.3 257.2 467.7C300 474 343 446 385.8 448.8C428.7 451.7 471.3 485.3 514.2 492.2C557 499 600 479 642.8 469.8C685.7 460.7 728.3 462.3 771.2 470.8C814 479.3 857 494.7 878.5 502.3L900 510L900 601L878.5 601C857 601 814 601 771.2 601C728.3 601 685.7 601 642.8 601C600 601 557 601 514.2 601C471.3 601 428.7 601 385.8 601C343 601 300 601 257.2 601C214.3 601 171.7 601 128.8 601C86 601 43 601 21.5 601L0 601Z" fill="#0066FF" stroke-linecap="round" stroke-linejoin="miter"></path></svg>